<svg xmlns="http://www.w3.org/2000/svg" width="1280" height="400" viewBox="0 0 1280 400" role="img" aria-labelledby="t d">
<title id="t">NetScope – Netzwerk-Inventar &amp; Asset-Monitoring fürs Homelab</title>
<desc id="d">Logo und Titel von NetScope neben einer Radar-Darstellung: ein Router in der Mitte, verbundene Geräte mit Online-, Offline- und Neu-Status sowie ein Gerät mit kritischer CVE.</desc>
<style>
.sweep { transform-origin: 1018px 200px; animation: spin 7s linear infinite; }
@keyframes spin { to { transform: rotate(360deg); } }
.ping { transform-box: fill-box; transform-origin: center; animation: ping 2.6s ease-out infinite; }
@keyframes ping { 0% { transform: scale(1); opacity: .7; } 80%, 100% { transform: scale(2.1); opacity: 0; } }
@media (prefers-reduced-motion: reduce) { * { animation: none !important; } }
</style>
<defs>
<linearGradient id="bg" x1="0" y1="0" x2="1" y2="1"><stop offset="0" stop-color="#0b1017"/><stop offset="1" stop-color="#0f1826"/></linearGradient>
<radialGradient id="glow" cx="1018" cy="200" r="330" gradientUnits="userSpaceOnUse"><stop offset="0" stop-color="#4cb4ec" stop-opacity="0.22"/><stop offset="1" stop-color="#4cb4ec" stop-opacity="0"/></radialGradient>
<pattern id="dots" width="22" height="22" patternUnits="userSpaceOnUse"><circle cx="2" cy="2" r="1.1" fill="rgba(148,163,184,0.09)"/></pattern>
<linearGradient id="sweep" gradientUnits="userSpaceOnUse" x1="1081.6" y1="98.2" x2="1138" y2="200"><stop offset="0" stop-color="#4cb4ec" stop-opacity="0"/><stop offset="1" stop-color="#4cb4ec" stop-opacity="0.32"/></linearGradient>
<clipPath id="frame"><rect width="1280" height="400" rx="28"/></clipPath>
</defs>
<g clip-path="url(#frame)">
<rect width="1280" height="400" fill="url(#bg)"/><rect width="1280" height="400" fill="url(#dots)"/><rect width="1280" height="400" fill="url(#glow)"/>
<circle cx="1018" cy="200" r="62" fill="none" stroke="rgba(76,180,236,0.38)" stroke-width="1.5" opacity="0.55"/>
<circle cx="1018" cy="200" r="112" fill="none" stroke="rgba(76,180,236,0.38)" stroke-width="1.5" opacity="0.4"/>
<circle cx="1018" cy="200" r="164" fill="none" stroke="rgba(76,180,236,0.38)" stroke-width="1.5" stroke-dasharray="3 7" opacity="0.45"/>
<g class="sweep"><path d="M1018 200 L1108.1 55.8 A170 170 0 0 1 1188 200 Z" fill="url(#sweep)"/><path d="M1018 200 L1188 200" stroke="#4cb4ec" stroke-width="2" stroke-linecap="round" opacity="0.8"/></g>
<line x1="1018" y1="200" x2="919.1" y2="147.4" stroke="rgba(76,180,236,0.38)" stroke-width="1.5"/>
<line x1="1018" y1="200" x2="981.7" y2="54.5" stroke="rgba(76,180,236,0.38)" stroke-width="1.5"/>
<line x1="1018" y1="200" x2="1106.9" y2="125.4" stroke="rgba(76,180,236,0.38)" stroke-width="1.5"/>
<line x1="1018" y1="200" x2="1163.5" y2="236.3" stroke="rgba(76,180,236,0.38)" stroke-width="1.5"/>
<line x1="1018" y1="200" x2="1073.4" y2="304.2" stroke="rgba(76,180,236,0.38)" stroke-width="1.5"/>
<line x1="1018" y1="200" x2="961.8" y2="339.1" stroke="#5d6677" stroke-width="1.5" stroke-dasharray="4 5"/>
<line x1="1018" y1="200" x2="909" y2="239.7" stroke="rgba(76,180,236,0.38)" stroke-width="1.5"/>
<line x1="1106.9" y1="125.4" x2="1062.9" y2="95.4" stroke="#f5a524" stroke-width="1.3" stroke-dasharray="3 3" opacity="0.8"/>
<rect x="1055.9" y="88.4" width="14" height="14" rx="3.5" fill="#121a25" stroke="#f5a524" stroke-width="1.6"/>
<line x1="1106.9" y1="125.4" x2="1098.9" y2="79.4" stroke="#f5a524" stroke-width="1.3" stroke-dasharray="3 3" opacity="0.8"/>
<rect x="1091.9" y="72.4" width="14" height="14" rx="3.5" fill="#121a25" stroke="#f5a524" stroke-width="1.6"/>
<circle cx="919.1" cy="147.4" r="18" fill="#121a25" stroke="#3ec27a" stroke-width="2"/>
<g transform="translate(910.1 138.4) scale(0.75)" fill="none" stroke="#e8ecf2" stroke-width="1.8" stroke-linecap="round" stroke-linejoin="round"><path d="M4 4h16v6H4z"/><path d="M4 14h16v6H4z"/><path d="M8 7h.01"/><path d="M8 17h.01"/></g>
<text x="893.1" y="151.9" font-family="'SFMono-Regular', Consolas, 'Liberation Mono', Menlo, monospace" font-size="13" font-weight="400" text-anchor="end" fill="#a3adbd">nas</text>
<circle cx="981.7" cy="54.5" r="18" fill="#121a25" stroke="#3ec27a" stroke-width="2"/>
<g transform="translate(972.7 45.5) scale(0.75)" fill="none" stroke="#e8ecf2" stroke-width="1.8" stroke-linecap="round" stroke-linejoin="round"><path d="M3 7h4l2-3h6l2 3h4v13H3z"/><path d="M8.5 13a3.5 3.5 0 1 0 7 0a3.5 3.5 0 1 0 -7 0"/></g>
<text x="955.7" y="59" font-family="'SFMono-Regular', Consolas, 'Liberation Mono', Menlo, monospace" font-size="13" font-weight="400" text-anchor="end" fill="#a3adbd">cam-hof</text>
<circle cx="1106.9" cy="125.4" r="18" fill="#121a25" stroke="#fb5f7e" stroke-width="2"/>
<g transform="translate(1097.9 116.4) scale(0.75)" fill="none" stroke="#e8ecf2" stroke-width="1.8" stroke-linecap="round" stroke-linejoin="round"><path d="M4 4h16v6H4z"/><path d="M4 14h16v6H4z"/><path d="M8 7h.01"/><path d="M8 17h.01"/></g>
<text x="1132.9" y="129.9" font-family="'SFMono-Regular', Consolas, 'Liberation Mono', Menlo, monospace" font-size="13" font-weight="400" fill="#a3adbd">pve</text>
<rect x="1130.9" y="83.4" width="75" height="22" rx="11" fill="rgba(251,95,126,0.16)" stroke="#fb5f7e" stroke-opacity="0.6"/>
<text x="1168.4" y="98.4" font-family="'Segoe UI', -apple-system, BlinkMacSystemFont, 'Helvetica Neue', Helvetica, Arial, sans-serif" font-size="12" font-weight="600" text-anchor="middle" fill="#fb5f7e">CVSS 9,8</text>
<circle cx="1163.5" cy="236.3" r="18" fill="#121a25" stroke="#3ec27a" stroke-width="2"/>
<g transform="translate(1154.5 227.3) scale(0.75)" fill="none" stroke="#e8ecf2" stroke-width="1.8" stroke-linecap="round" stroke-linejoin="round"><path d="M3 6h18v12H3z"/><path d="M8 21h8"/><path d="M9 3l3 3 3-3"/></g>
<text x="1189.5" y="240.8" font-family="'SFMono-Regular', Consolas, 'Liberation Mono', Menlo, monospace" font-size="13" font-weight="400" fill="#a3adbd">tv</text>
<circle class="ping" cx="1073.4" cy="304.2" r="18" fill="none" stroke="#a78bfa" stroke-width="2"/>
<circle cx="1073.4" cy="304.2" r="18" fill="#121a25" stroke="#a78bfa" stroke-width="2"/>
<g transform="translate(1064.4 295.2) scale(0.75)" fill="none" stroke="#e8ecf2" stroke-width="1.8" stroke-linecap="round" stroke-linejoin="round"><path d="M8 3h8a1 1 0 0 1 1 1v16a1 1 0 0 1-1 1H8a1 1 0 0 1-1-1V4a1 1 0 0 1 1-1z"/><path d="M11 18h2"/></g>
<rect x="1097.4" y="312.2" width="89" height="22" rx="11" fill="rgba(167,139,250,0.16)" stroke="#a78bfa" stroke-opacity="0.6"/>
<text x="1141.9" y="327.2" font-family="'Segoe UI', -apple-system, BlinkMacSystemFont, 'Helvetica Neue', Helvetica, Arial, sans-serif" font-size="12" font-weight="600" text-anchor="middle" fill="#a78bfa">Neues Gerät</text>
<circle cx="961.8" cy="339.1" r="18" fill="#121a25" stroke="#5d6677" stroke-width="2"/>
<g transform="translate(952.8 330.1) scale(0.75)" fill="none" stroke="#6f7a8c" stroke-width="1.8" stroke-linecap="round" stroke-linejoin="round"><path d="M5 5h14v10H5z"/><path d="M3 19h18l-2-4H5z"/></g>
<text x="935.8" y="343.6" font-family="'SFMono-Regular', Consolas, 'Liberation Mono', Menlo, monospace" font-size="13" font-weight="400" text-anchor="end" fill="#a3adbd">laptop</text>
<circle cx="909" cy="239.7" r="18" fill="#121a25" stroke="#3ec27a" stroke-width="2"/>
<g transform="translate(900 230.7) scale(0.75)" fill="none" stroke="#e8ecf2" stroke-width="1.8" stroke-linecap="round" stroke-linejoin="round"><path d="M13 2L4 14h7l-1 8 9-12h-7z"/></g>
<text x="883" y="244.2" font-family="'SFMono-Regular', Consolas, 'Liberation Mono', Menlo, monospace" font-size="13" font-weight="400" text-anchor="end" fill="#a3adbd">iot-plug</text>
<circle cx="1018" cy="200" r="27" fill="#172131" stroke="#4cb4ec" stroke-width="2.2"/>
<g transform="translate(1006 188) scale(1)" fill="none" stroke="#4cb4ec" stroke-width="2" stroke-linecap="round" stroke-linejoin="round"><path d="M3 13h18v6H3z"/><path d="M7 16h.01"/><path d="M11 16h.01"/><path d="M17 13V8"/><path d="M14.5 5.5a3.5 3.5 0 0 1 5 0"/></g>
<g transform="translate(72 70) scale(1.375)"><rect width="64" height="64" rx="14" fill="#0f172a"/><rect x="0.5" y="0.5" width="63" height="63" rx="13.5" fill="none" stroke="#38bdf8" stroke-opacity="0.25"/><circle cx="32" cy="32" r="18" fill="none" stroke="#38bdf8" stroke-width="4"/><circle cx="32" cy="32" r="8" fill="none" stroke="#38bdf8" stroke-width="3" opacity=".7"/><path d="M32 32 L46 18" stroke="#f59e0b" stroke-width="4" stroke-linecap="round"/><circle cx="46" cy="18" r="4" fill="#f59e0b"/></g>
<text x="182" y="136" font-family="'Segoe UI', -apple-system, BlinkMacSystemFont, 'Helvetica Neue', Helvetica, Arial, sans-serif" font-size="62" font-weight="700" letter-spacing="-1.2" fill="#e8ecf2">NetScope</text>
<text x="184" y="164" font-family="'SFMono-Regular', Consolas, 'Liberation Mono', Menlo, monospace" font-size="15" font-weight="400" letter-spacing="1.6" fill="#6f7a8c">self-hosted · go · sveltekit · sqlite</text>
<text x="72" y="222" font-family="'Segoe UI', -apple-system, BlinkMacSystemFont, 'Helvetica Neue', Helvetica, Arial, sans-serif" font-size="26" font-weight="600" letter-spacing="-0.3" fill="#e8ecf2">Netzwerk-Inventar &amp; Asset-Monitoring fürs Homelab</text>
<text x="72" y="258" font-family="'Segoe UI', -apple-system, BlinkMacSystemFont, 'Helvetica Neue', Helvetica, Arial, sans-serif" font-size="18" font-weight="400" fill="#a3adbd">Was ist das, wo hängt es, was läuft darauf – und ist es verwundbar?</text>
<rect x="72" y="300" width="134" height="34" rx="17" fill="#121a25" stroke="#34435c"/><g transform="translate(84 310) scale(0.5833333333333334)" fill="none" stroke="#e8ecf2" stroke-width="2" stroke-linecap="round" stroke-linejoin="round"><path d="M21 8l-9-5-9 5v8l9 5 9-5z"/><path d="M3 8l9 5 9-5"/><path d="M12 13v8"/></g><text x="149" y="321.9" font-family="'Segoe UI', -apple-system, BlinkMacSystemFont, 'Helvetica Neue', Helvetica, Arial, sans-serif" font-size="14" font-weight="500" text-anchor="middle" fill="#e8ecf2">Ein Go-Binary</text>
<rect x="216" y="300" width="113" height="34" rx="17" fill="#121a25" stroke="#34435c"/><g transform="translate(228 310) scale(0.5833333333333334)" fill="none" stroke="#e8ecf2" stroke-width="2" stroke-linecap="round" stroke-linejoin="round"><path d="M9 4h2a2 2 0 0 1 4 0h3v5a2 2 0 0 1 0 4v6H4v-5a2 2 0 0 0 0-4V4z"/></g><text x="282.5" y="321.9" font-family="'Segoe UI', -apple-system, BlinkMacSystemFont, 'Helvetica Neue', Helvetica, Arial, sans-serif" font-size="14" font-weight="500" text-anchor="middle" fill="#e8ecf2">30 Plugins</text>
<rect x="339" y="300" width="132" height="34" rx="17" fill="#121a25" stroke="#34435c"/><g transform="translate(351 310) scale(0.5833333333333334)" fill="none" stroke="#e8ecf2" stroke-width="2" stroke-linecap="round" stroke-linejoin="round"><path d="M3 12h4l3-8 4 16 3-8h4"/></g><text x="415" y="321.9" font-family="'Segoe UI', -apple-system, BlinkMacSystemFont, 'Helvetica Neue', Helvetica, Arial, sans-serif" font-size="14" font-weight="500" text-anchor="middle" fill="#e8ecf2">Live-Updates</text>
<rect x="481" y="300" width="135" height="34" rx="17" fill="#121a25" stroke="#34435c"/><g transform="translate(493 310) scale(0.5833333333333334)" fill="none" stroke="#e8ecf2" stroke-width="2" stroke-linecap="round" stroke-linejoin="round"><path d="M12 3l8 3v6c0 4.5-3.4 8.3-8 9-4.6-.7-8-4.5-8-9V6z"/><path d="M12 8v5"/><path d="M12 16h.01"/></g><text x="558.5" y="321.9" font-family="'Segoe UI', -apple-system, BlinkMacSystemFont, 'Helvetica Neue', Helvetica, Arial, sans-serif" font-size="14" font-weight="500" text-anchor="middle" fill="#e8ecf2">CVE-Abgleich</text>
<rect x="626" y="300" width="112" height="34" rx="17" fill="#121a25" stroke="#34435c"/><g transform="translate(638 310) scale(0.5833333333333334)" fill="none" stroke="#e8ecf2" stroke-width="2" stroke-linecap="round" stroke-linejoin="round"><path d="M20 14.5A8 8 0 1 1 9.5 4a6.5 6.5 0 0 0 10.5 10.5z"/></g><text x="692" y="321.9" font-family="'Segoe UI', -apple-system, BlinkMacSystemFont, 'Helvetica Neue', Helvetica, Arial, sans-serif" font-size="14" font-weight="500" text-anchor="middle" fill="#e8ecf2">Dark Mode</text>
</g>
<rect x="0.75" y="0.75" width="1278.5" height="398.5" rx="27.5" fill="none" stroke="#253245" stroke-width="1.5"/>
</svg>
